<svg width="16" height="16" viewBox="0 0 16 16" fill="none" xmlns="http://www.w3.org/2000/svg">
<path fill-rule="evenodd" clip-rule="evenodd" d="M16 8C16 7.44772 15.5523 7 15 7H6.21421C5.32331 7 4.87714 5.92286 5.50711 5.29289L8.7 2.1C9.0866 1.7134 9.0866 1.0866 8.7 0.7V0.7C8.3134 0.313401 7.6866 0.313401 7.3 0.7L0.707106 7.29289C0.316582 7.68342 0.316583 8.31658 0.707107 8.70711L7.3 15.3C7.6866 15.6866 8.3134 15.6866 8.7 15.3V15.3C9.0866 14.9134 9.0866 14.2866 8.7 13.9L5.50711 10.7071C4.87714 10.0771 5.32331 9 6.21421 9H15C15.5523 9 16 8.55228 16 8V8Z" fill="black"/>
</svg>
