<svg width="14" height="14" viewBox="0 0 14 14" fill="none" xmlns="http://www.w3.org/2000/svg">
<path fill-rule="evenodd" clip-rule="evenodd" d="M0 10C0 10.5523 0.447715 11 1 11H2C2.55228 11 3 11.4477 3 12V13C3 13.5523 3.44772 14 4 14V14C4.55228 14 5 13.5523 5 13V10C5 9.44772 4.55228 9 4 9H1C0.447715 9 0 9.44772 0 10V10ZM3 2C3 2.55228 2.55228 3 2 3H1C0.447715 3 0 3.44772 0 4V4C0 4.55228 0.447715 5 1 5H4C4.55228 5 5 4.55228 5 4V1C5 0.447715 4.55228 0 4 0V0C3.44772 0 3 0.447715 3 1V2ZM9 13C9 13.5523 9.44772 14 10 14V14C10.5523 14 11 13.5523 11 13V12C11 11.4477 11.4477 11 12 11H13C13.5523 11 14 10.5523 14 10V10C14 9.44772 13.5523 9 13 9H10C9.44772 9 9 9.44772 9 10V13ZM12 3C11.4477 3 11 2.55228 11 2V1C11 0.447715 10.5523 0 10 0V0C9.44772 0 9 0.447715 9 1V4C9 4.55228 9.44772 5 10 5H13C13.5523 5 14 4.55228 14 4V4C14 3.44772 13.5523 3 13 3H12Z" fill="black"/>
</svg>
