<svg width="16" height="16" viewBox="0 0 16 16" fill="none" xmlns="http://www.w3.org/2000/svg">
<path fill-rule="evenodd" clip-rule="evenodd" d="M8.7 0.699999C8.3134 0.313399 7.6866 0.313401 7.3 0.7V0.7C6.9134 1.0866 6.9134 1.7134 7.3 2.1L10.4929 5.29289C11.1229 5.92286 10.6767 7 9.78579 7H0.999999C0.447714 7 0 7.44772 0 8V8C0 8.55228 0.447715 9 1 9H9.78579C10.6767 9 11.1229 10.0771 10.4929 10.7071L7.3 13.9C6.9134 14.2866 6.9134 14.9134 7.3 15.3V15.3C7.6866 15.6866 8.3134 15.6866 8.7 15.3L15.2929 8.70711C15.6834 8.31658 15.6834 7.68342 15.2929 7.29289L8.7 0.699999Z" fill="black"/>
</svg>
