<svg width="14" height="14" viewBox="0 0 14 14" fill="none" xmlns="http://www.w3.org/2000/svg">
<path fill-rule="evenodd" clip-rule="evenodd" d="M2 10C2 9.44772 1.55228 9 1 9V9C0.447715 9 0 9.44772 0 10V13C0 13.5523 0.447715 14 1 14H4C4.55228 14 5 13.5523 5 13V13C5 12.4477 4.55228 12 4 12H3C2.44772 12 2 11.5523 2 11V10ZM0 4C0 4.55228 0.447715 5 1 5V5C1.55228 5 2 4.55228 2 4V3C2 2.44772 2.44772 2 3 2H4C4.55228 2 5 1.55228 5 1V1C5 0.447715 4.55228 0 4 0H1C0.447715 0 0 0.447715 0 1V4ZM12 11C12 11.5523 11.5523 12 11 12H10C9.44772 12 9 12.4477 9 13V13C9 13.5523 9.44772 14 10 14H13C13.5523 14 14 13.5523 14 13V10C14 9.44772 13.5523 9 13 9V9C12.4477 9 12 9.44772 12 10V11ZM10 0C9.44772 0 9 0.447715 9 1V1C9 1.55228 9.44772 2 10 2H11C11.5523 2 12 2.44772 12 3V4C12 4.55228 12.4477 5 13 5V5C13.5523 5 14 4.55228 14 4V1C14 0.447715 13.5523 0 13 0H10Z" fill="black"/>
</svg>
