<svg width="18" height="7" viewBox="0 0 18 7" fill="none" xmlns="http://www.w3.org/2000/svg">
<path fill-rule="evenodd" clip-rule="evenodd" d="M12 6C12 6.55229 11.5523 7 11 7L1 7C0.447715 7 2.15191e-07 6.55229 1.66909e-07 6V6C1.18627e-07 5.44772 0.447715 5 1 5L11 5C11.5523 5 12 5.44772 12 6V6ZM17 8.74228e-08C17.5523 3.91406e-08 18 0.447715 18 1V1C18 1.55228 17.5523 2 17 2L1 2C0.447716 2 1.35705e-07 1.55229 8.74228e-08 1V1C3.91405e-08 0.447717 0.447715 1.53447e-06 1 1.48619e-06L17 8.74228e-08Z" fill="black"/>
</svg>
