<svg width="16" height="16" viewBox="0 0 16 16" fill="none" xmlns="http://www.w3.org/2000/svg">
<path fill-rule="evenodd" clip-rule="evenodd" d="M6 15C6 15.5523 6.44772 16 7 16H9C9.55228 16 10 15.5523 10 15V13C10 12.4477 9.55228 12 9 12H7C6.44772 12 6 12.4477 6 13V15ZM0 15C0 15.5523 0.447715 16 1 16H3C3.55228 16 4 15.5523 4 15V13C4 12.4477 3.55228 12 3 12H1C0.447715 12 0 12.4477 0 13V15ZM0 9C0 9.55228 0.447715 10 1 10H3C3.55228 10 4 9.55228 4 9V7C4 6.44772 3.55228 6 3 6H1C0.447715 6 0 6.44772 0 7V9ZM6 9C6 9.55228 6.44772 10 7 10H9C9.55228 10 10 9.55228 10 9V7C10 6.44772 9.55228 6 9 6H7C6.44772 6 6 6.44772 6 7V9ZM13 0C12.4477 0 12 0.447715 12 1V3C12 3.55228 12.4477 4 13 4H15C15.5523 4 16 3.55228 16 3V1C16 0.447715 15.5523 0 15 0H13ZM6 3C6 3.55228 6.44772 4 7 4H9C9.55228 4 10 3.55228 10 3V1C10 0.447715 9.55228 0 9 0H7C6.44772 0 6 0.447715 6 1V3ZM12 9C12 9.55228 12.4477 10 13 10H15C15.5523 10 16 9.55228 16 9V7C16 6.44772 15.5523 6 15 6H13C12.4477 6 12 6.44772 12 7V9Z" fill="black"/>
</svg>
