<svg width="14" height="14" viewBox="0 0 14 14" fill="none" xmlns="http://www.w3.org/2000/svg">
<path fill-rule="evenodd" clip-rule="evenodd" d="M7 0C6.44772 0 6 0.447715 6 1V5C6 5.55228 5.55228 6 5 6H1C0.447715 6 0 6.44772 0 7V7C0 7.55228 0.447715 8 1 8H5C5.55228 8 6 8.44772 6 9V13C6 13.5523 6.44772 14 7 14V14C7.55228 14 8 13.5523 8 13V9C8 8.44772 8.44772 8 9 8H13C13.5523 8 14 7.55228 14 7V7C14 6.44772 13.5523 6 13 6H9C8.44772 6 8 5.55228 8 5V1C8 0.447715 7.55228 0 7 0V0Z" fill="black"/>
</svg>
