<svg width="16" height="16" viewBox="0 0 16 16" fill="none" xmlns="http://www.w3.org/2000/svg">
<path fill-rule="evenodd" clip-rule="evenodd" d="M8 0C3.6 0 0 3.6 0 8C0 12.4 3.6 16 8 16C11.2192 16 13.9842 14.0318 15.4388 11.281C15.7582 10.677 15.2836 10 14.6003 10V10C14.2313 10 13.897 10.2078 13.704 10.5222C12.4574 12.5527 10.399 14 8 14C4.7 14 2 11.3 2 8C2 4.7 4.7 2 8 2C9.44119 2 10.6668 2.50309 11.5549 3.44833C11.7602 3.66685 11.5904 4 11.2906 4V4C10.8689 4 10.773 4.591 11.173 4.72434L14.6623 5.88743C15.4195 6.13982 16.1398 5.41946 15.8874 4.66228L14.7436 1.23081C14.6067 0.82014 14 0.918598 14 1.35148V1.35148C14 1.64244 13.6875 1.8264 13.4312 1.68872C11.7813 0.802574 9.9709 0 8 0Z" fill="black"/>
</svg>
