<svg width="16" height="17" viewBox="0 0 16 17" fill="none" xmlns="http://www.w3.org/2000/svg">
<path fill-rule="evenodd" clip-rule="evenodd" d="M13.2016 12.5861L12.7948 12.1779C12.4269 11.8089 12.4118 11.2249 12.7264 10.8095C13.3807 9.94557 13.7275 9.16548 13.7275 7.8098C13.7275 3.99941 10.6547 0.910763 6.86375 0.910763C3.07285 0.910763 0 3.99941 0 7.8098C0 11.6202 3.07285 14.7088 6.86375 14.7088C8.20885 14.7088 8.9844 14.3615 9.84118 13.7075C10.2578 13.3894 10.846 13.4043 11.2159 13.7757L11.6166 14.1781L14.0745 16.6495C14.4655 17.0426 15.1015 17.0426 15.4925 16.6496L15.666 16.4753C16.054 16.0853 16.0541 15.4551 15.6662 15.0649L13.2016 12.5861ZM6.86315 12.5858C4.23803 12.5858 2.11133 10.4481 2.11133 7.80952C2.11133 5.17197 4.23803 3.03327 6.86315 3.03327C9.48722 3.03327 11.615 5.17197 11.615 7.80952C11.615 10.4481 9.48722 12.5858 6.86315 12.5858V12.5858Z" fill="black"/>
</svg>
